<?xml version="1.0" standalone="no"?>
<!DOCTYPE svg PUBLIC "-//W3C//DTD SVG 20010904//EN"
 "http://www.w3.org/TR/2001/REC-SVG-20010904/DTD/svg10.dtd">
<svg version="1.0" xmlns="http://www.w3.org/2000/svg"
 width="200.000000pt" height="200.000000pt" viewBox="0 0 200.000000 200.000000"
 preserveAspectRatio="xMidYMid meet">
<metadata>
Created by potrace 1.11, written by Peter Selinger 2001-2013
</metadata>
<g transform="translate(0.000000,200.000000) scale(0.100000,-0.100000)"
fill="#000000" stroke="none">
<path d="M0 1000 l0 -1000 1000 0 1000 0 0 1000 0 1000 -1000 0 -1000 0 0
-1000z m834 848 c16 -26 -16 -57 -38 -38 -17 13 -21 42 -9 54 11 11 35 3 47
-16z m226 -91 c29 -14 60 -70 60 -109 0 -27 -1 -27 -77 -30 -66 -3 -78 -6 -81
-21 -2 -10 5 -28 15 -39 15 -17 26 -19 76 -15 50 4 57 3 57 -13 0 -21 -27 -30
-88 -30 -81 0 -112 39 -112 141 0 56 3 64 34 95 37 37 72 43 116 21z m-220
-19 c0 -13 7 -84 15 -159 15 -155 9 -202 -30 -236 -31 -27 -41 -28 -49 -8 -3
8 5 25 19 39 30 30 31 51 10 226 -20 165 -20 160 10 160 19 0 25 -5 25 -22z
m640 -12 c0 -30 4 -35 30 -41 17 -4 30 -13 30 -22 0 -12 -7 -14 -35 -9 l-36 7
3 -73 c3 -65 6 -74 26 -83 36 -16 28 -39 -10 -31 -57 11 -71 39 -65 128 4 69
3 77 -14 81 -10 3 -19 13 -19 22 0 12 5 15 20 10 16 -5 20 -2 20 19 0 21 5 26
25 26 22 0 25 -4 25 -34z m-143 0 c33 -17 15 -40 -21 -26 -40 15 -64 12 -86
-10 -27 -27 -27 -89 1 -124 17 -22 28 -26 70 -26 43 0 50 -3 47 -17 -3 -15
-14 -18 -61 -18 -51 0 -61 4 -89 32 -25 26 -32 42 -36 85 -4 47 -1 58 22 85
37 43 93 50 153 19z m287 -12 c21 -21 20 -34 -3 -34 -22 0 -45 25 -36 40 9 14
21 13 39 -6z m-931 -14 c48 -38 66 -164 32 -229 -20 -39 -70 -71 -112 -71 -75
0 -130 147 -89 244 30 71 114 99 169 56z m-415 -60 c15 -31 22 -62 22 -105 0
-69 -19 -107 -73 -150 l-35 -28 26 -94 c23 -87 24 -95 9 -110 -9 -9 -18 -15
-21 -12 -5 5 -128 449 -130 469 0 8 21 29 48 48 40 26 58 32 90 30 37 -3 43
-7 64 -48z m196 14 c5 -20 1 -30 -18 -45 -37 -29 -40 -66 -16 -185 21 -103 21
-108 4 -121 -10 -7 -19 -11 -20 -10 -4 4 -74 324 -74 336 0 5 9 11 20 14 15 4
20 0 20 -16 0 -19 4 -16 31 16 36 44 45 46 53 11z m1152 -82 c-12 -120 -15
-130 -38 -124 -19 5 -20 10 -13 101 4 53 9 99 12 104 2 4 13 2 25 -4 18 -10
20 -17 14 -77z m163 -12 c44 -22 88 -70 97 -107 8 -31 -9 -69 -35 -78 -64 -20
-181 62 -181 127 0 73 46 96 119 58z m-889 -570 c0 -17 -7 -20 -45 -20 l-45 0
0 -250 0 -250 45 0 c38 0 45 -3 45 -20 0 -18 -7 -20 -70 -20 l-70 0 0 290 0
290 70 0 c63 0 70 -2 70 -20z m263 9 c41 -19 51 -49 44 -143 -6 -89 3 -116 39
-116 25 0 15 -35 -16 -52 l-30 -17 6 -86 c5 -61 3 -92 -6 -109 -23 -45 -110
-65 -110 -26 0 11 7 20 15 20 8 0 24 9 35 20 17 17 18 28 13 103 -5 75 -4 86
14 104 20 20 20 20 0 44 -17 21 -19 34 -14 107 5 73 4 85 -13 102 -11 11 -27
20 -35 20 -8 0 -15 9 -15 20 0 23 33 27 73 9z m-139 -166 c-3 -93 -7 -174 -10
-180 -2 -7 -13 -13 -24 -13 -11 0 -22 6 -24 13 -3 6 -7 87 -10 180 l-6 167 40
0 40 0 -6 -167z m7 -264 c16 -30 -3 -69 -34 -69 -29 0 -47 17 -47 45 0 45 60
63 81 24z"/>
<path d="M976 1715 c-14 -15 -31 -54 -24 -59 12 -8 118 8 118 18 0 44 -63 72
-94 41z"/>
<path d="M585 1655 c-51 -50 -23 -196 38 -203 35 -4 53 10 68 55 16 48 3 120
-26 149 -31 30 -50 30 -80 -1z"/>
<path d="M158 1624 c-16 -8 -28 -20 -28 -26 0 -17 43 -172 50 -181 11 -13 58
32 70 68 15 44 5 106 -21 134 -23 25 -34 25 -71 5z"/>
<path d="M1719 1517 c-22 -48 31 -112 88 -105 24 3 28 8 31 39 3 30 -2 41 -28
63 -39 33 -77 34 -91 3z"/>
</g>
</svg>
